<!DOCTYPE svg PUBLIC "-//W3C//DTD SVG 1.1//EN" "http://www.w3.org/Graphics/SVG/1.1/DTD/svg11.dtd">
<!-- Uploaded to: SVG Repo, www.svgrepo.com, Transformed by: SVG Repo Mixer Tools -->
<svg fill="#ffffff" height="800px" width="800px" version="1.1" id="Layer_1" xmlns="http://www.w3.org/2000/svg" xmlns:xlink="http://www.w3.org/1999/xlink" viewBox="0 0 512 512" xml:space="preserve" stroke="#ffffff">
<g id="SVGRepo_bgCarrier" stroke-width="0"/>
<g id="SVGRepo_tracerCarrier" stroke-linecap="round" stroke-linejoin="round"/>
<g id="SVGRepo_iconCarrier"> <g> <g> <path d="M416,356.528H301.6c36.44-52.68,93.56-143.536,93.56-196.08C395.16,73,340.568,16.48,256,16.48S116.84,73,116.84,160.456 c0,52.6,57.064,143.424,93.552,196.08H96L0,495.52h512L416,356.528z M256,115.288c24.888,0,45.064,20.176,45.064,45.064 S280.888,205.416,256,205.416s-45.064-20.176-45.064-45.064S231.112,115.288,256,115.288z M60.992,463.52l51.8-74.992h5.08 l-0.096,0.144L223.56,463.52H60.992z M172.976,388.536h60.344c2.576,3.456,4.528,6.04,5.664,7.52L256,418.536l17.128-22.48 c1.12-1.488,3.056-4.064,5.608-7.52h61.272l-82.136,60.072L172.976,388.536z M394.216,388.528h4.992l51.8,74.992h-159.32 L394.216,388.528z"/> </g> </g> </g>
</svg>